<svg xmlns="http://www.w3.org/2000/svg"
shape-rendering="geometricPrecision"
width="4000" height="4000" viewBox="0 0 1024 1024">
  <metadata>null</metadata>

<path d="
M 146.983 500.523
C 147.478 501.071 150.323 500.741 151.173 500.762
C 155.694 500.874 160.223 500.672 164.745 500.687
C 183.29 500.75 201.86 499.774 220.411 499.595
C 223.36 499.567 226.306 499.692 229.254 499.669
C 231.484 499.651 233.844 499.383 236.044 499.85
C 237.38 500.133 238.685 500.138 240.015 500.364
C 240.477 500.442 241.09 500.899 241.405 500.282
C 241.693 499.717 240.185 499.147 239.865 499.025
C 238.144 498.369 235.881 498.128 234.053 497.783
C 231.143 497.236 228.342 496.248 225.444 495.643
C 220.019 494.51 214.562 493.573 209.126 492.495
C 194.569 489.606 180.101 486.258 165.532 483.429
C 160.691 482.489 155.949 481.251 151.049 480.636
C 150.035 480.508 148.937 479.916 147.966 479.918
C 143.996 478.816 139.702 478.483 135.658 477.589
C 127.919 475.878 120.175 474.129 112.403 472.561
C 108.086 471.691 103.285 471.105 99.152 469.589
C 98.638 468.366 99.3 466.963 100.066 465.997
C 103.888 466.008 107.925 467.605 111.635 468.451
C 119.753 470.302 127.901 472.059 136.071 473.663
C 139.052 474.248 142.008 474.958 144.991 475.526
C 145.892 475.698 147.517 476.411 148.36 475.978
C 150.885 477.019 153.845 477.329 156.515 477.884
C 161.029 478.821 165.512 479.902 170.015 480.883
C 187.203 484.63 204.522 487.767 221.733 491.405
C 227.126 492.545 233.361 493.844 238.414 496.042
C 239.814 496.651 241.3 497.051 242.736 497.565
C 243.139 497.71 243.902 498.069 244.308 497.724
C 244.758 497.339 242.665 495.923 242.377 495.736
C 239.925 494.141 237.133 493.127 234.486 491.884
C 227.776 488.733 220.874 485.976 214.245 482.623
C 208.182 479.556 201.815 477.104 195.604 474.349
C 187.917 470.939 180.351 467.225 172.632 463.893
C 168.638 462.169 164.657 460.235 160.759 458.308
C 158.759 457.32 156.217 455.831 154.028 455.49
C 153.144 455.377 152.377 454.772 151.536 454.474
C 148.63 453.443 145.902 451.938 143.054 450.76
C 137.267 448.366 131.659 445.569 125.968 442.961
C 122.719 441.472 118.946 440.35 116.161 438.076
C 116.176 436.824 116.944 435.904 117.628 434.911
C 118.439 434.803 119.262 435.37 119.976 435.741
C 121.671 436.619 123.361 437.545 125.115 438.307
C 132.223 441.399 139.281 444.695 146.286 448.015
C 148.31 448.974 150.383 449.869 152.366 450.905
C 153.164 451.322 154.308 452.238 155.239 451.958
C 156.733 453.294 159.564 454.153 161.421 454.981
C 165.489 456.796 169.537 458.62 173.598 460.452
C 187.461 466.705 201.28 473.027 215.059 479.43
C 221.973 482.642 228.766 486.127 235.56 489.576
C 238.031 490.831 240.522 492.025 242.988 493.291
C 243.512 493.56 244.428 494.914 244.863 494.924
C 245.257 494.933 245.84 493.892 245.731 493.563
C 245.595 493.154 244.687 492.715 244.362 492.489
C 242.913 491.482 241.376 490.612 239.964 489.552
C 235.321 486.067 230.672 482.278 226.272 478.484
C 211.218 465.507 194.399 454.53 178.917 442.063
C 176.286 439.945 173.686 437.74 170.929 435.787
C 169.306 434.637 167.422 433.814 166.052 432.363
C 162.848 430.31 160.069 427.585 156.956 425.39
C 152.748 422.422 148.105 419.55 144.283 416.1
C 144.302 414.771 144.928 413.546 146.055 412.826
C 148.19 413.734 149.849 415.422 151.703 416.772
C 155.33 419.412 158.9 422.156 162.433 424.92
C 164.156 426.268 165.948 428.314 167.992 429.127
C 168.44 430.249 170.453 431.193 171.392 431.988
C 174.79 434.863 178.534 437.273 182.029 440.028
C 193.93 449.41 205.905 458.695 217.978 467.856
C 225.577 473.621 232.922 479.696 240.206 485.848
C 241.902 487.281 243.7 488.581 245.295 490.138
C 245.589 490.425 246.687 491.863 247.206 491.334
C 247.708 490.823 246.56 489.595 246.267 489.228
C 244.756 487.344 243.22 485.435 241.661 483.585
C 234.834 475.481 228.226 467.158 221.204 459.216
C 211.368 448.092 202.618 435.98 192.851 424.783
C 190.101 421.63 187.668 418.256 184.687 415.307
C 184.205 414.831 184.778 414.769 184.593 414.185
C 184.323 413.337 183.308 413.066 182.544 412.883
C 182.251 411.247 179.747 409.292 178.693 408.01
C 174.999 403.515 171.212 399.102 167.417 394.692
C 159.196 385.141 151.198 375.407 143.092 365.758
C 138.322 360.081 133.186 354.501 128.814 348.52
C 128.821 347.282 130.19 346.442 131.018 345.705
C 132.203 345.722 133.54 347.84 134.253 348.727
C 136.705 351.775 139.185 354.829 141.718 357.81
C 152.462 370.453 162.814 383.435 173.561 396.079
C 176.546 399.591 179.529 403.104 182.445 406.673
C 183.142 407.525 184.832 410.309 185.956 409.995
C 185.632 410.867 187.179 412.482 187.726 413.235
C 189.927 416.27 192.515 419.062 194.953 421.902
C 205.024 433.633 214.736 445.719 224.501 457.707
C 231.136 465.854 237.653 474.138 243.961 482.539
C 245.432 484.499 246.914 486.628 248.565 488.435
C 248.69 488.571 250.127 489.993 250.299 489.839
C 250.61 489.561 250.382 488.722 250.291 488.413
C 249.884 487.03 248.976 485.743 248.289 484.482
C 245.377 479.134 242.737 473.639 239.761 468.328
C 230.406 451.629 222.291 434.257 213.231 417.402
C 211.041 413.326 208.893 409.238 206.843 405.089
C 205.746 402.867 204.704 400.107 203.005 398.287
C 203.111 397.312 202.261 396.187 201.803 395.364
C 200.636 393.266 199.641 391.056 198.549 388.918
C 194.382 380.756 190.371 372.5 186.024 364.433
C 184.937 362.416 183.978 360.323 182.818 358.347
C 182.234 357.353 181.392 356.149 181.625 354.922
C 181.837 353.809 183.046 353.246 183.992 352.946
C 185.014 353.627 185.529 354.825 186.09 355.899
C 187.223 358.067 188.303 360.258 189.39 362.451
C 193.287 370.315 197.324 378.128 201.334 385.935
C 202.584 388.37 203.751 390.839 204.968 393.289
C 205.392 394.143 205.981 395.692 206.854 396.108
C 207.77 399.199 209.572 402.199 210.968 405.101
C 213.992 411.387 217.281 417.601 220.589 423.741
C 228.309 438.074 235.408 452.828 242.582 467.443
C 245.321 473.024 247.941 478.663 250.71 484.208
C 251.355 485.499 252.737 489.081 254.772 488.397
C 256.423 487.842 255.843 484.313 255.862 482.993
C 255.942 477.45 255.554 471.932 255.461 466.399
C 255.116 445.933 254.576 425.469 254.331 405.003
C 254.281 400.841 254.311 396.669 254.162 392.51
C 254.121 391.358 254.184 390.189 254.114 389.04
C 254.094 388.716 253.846 387.718 254.019 387.431
C 254.664 386.361 256.807 386.79 257.587 387.353
C 257.808 387.751 257.711 387.546 257.879 387.966
C 257.42 395.136 257.938 402.433 258.079 409.617
C 258.307 421.306 258.421 433 258.673 444.68
C 258.973 458.574 258.757 472.482 258.277 486.361
C 258.085 491.891 258.568 497.44 258.046 502.966
C 257.227 511.649 255.912 520.309 254.54 528.924
C 252.94 538.975 250.786 548.964 249.048 558.997
C 247.679 566.903 246.585 574.937 244.865 582.775
C 243.577 588.641 242.408 594.536 241.163 600.414
C 240.756 602.334 239.374 605.578 239.889 607.467
C 239.259 608.563 239.293 610.375 239.084 611.616
C 238.504 615.057 237.867 618.522 237.366 621.974
C 237.142 623.517 237.119 625.573 236.208 626.89
C 235.081 626.929 233.816 626.793 232.849 626.149
C 232.558 624.14 233.618 621.54 233.995 619.533
C 234.805 615.225 235.121 610.608 236.436 606.423
C 236.141 604.597 237.288 602.212 237.728 600.44
C 238.855 595.9 239.982 591.334 240.872 586.74
C 243.99 570.642 246.583 554.463 249.545 538.341
C 250.42 533.577 251.258 528.815 251.947 524.021
C 252.334 521.326 253.185 518.862 252.33 516.14
C 252.311 516.08 252.255 517.184 252.24 517.339
C 252.181 517.942 251.686 518.478 251.465 519.037
C 250.726 520.907 250.126 522.79 249.276 524.635
C 246.557 530.543 244.38 536.697 241.636 542.599
C 235.687 555.394 230.515 568.595 224.652 581.443
C 222.401 586.376 220.585 591.744 217.875 596.443
C 217.15 596.193 216.714 595.208 215.943 594.887
C 215.588 594.739 214.9 595.061 214.806 594.687
C 214.761 594.51 215.233 593.876 215.294 593.764
C 215.908 592.637 216.553 591.524 217.104 590.364
C 219.269 585.804 221.287 581.175 223.405 576.593
C 230.079 562.155 236.123 547.441 242.652 532.94
C 244.734 528.315 246.74 523.613 248.906 519.039
C 249.52 517.742 250.493 516.637 250.984 515.279
C 250.798 513.621 249.296 515.871 248.779 516.487
C 247.21 518.359 246.095 520.652 244.61 522.616
C 240.549 527.985 236.464 533.34 232.402 538.708
C 225.394 547.969 218.659 557.421 211.466 566.543
C 206.343 573.04 200.109 579.541 196.156 586.843
C 196.151 588.166 197.449 589.362 197.959 590.56
C 196.957 589.891 196.014 589.166 194.933 588.621
C 193.37 589.821 192.047 592.175 190.875 593.784
C 188.477 597.075 186.017 600.378 183.43 603.523
C 172.932 616.288 162.905 629.472 152.621 642.41
C 149.859 645.884 147.165 649.41 144.339 652.834
C 143.168 654.253 142.071 655.96 140.679 657.157
C 139.228 657.964 137.759 655.695 137.762 654.529
C 149.449 640.278 160.941 625.803 172.195 611.2
C 176.466 605.659 180.847 600.219 185.191 594.736
C 187.198 592.203 189.152 588.873 191.549 586.737
C 192.245 586.238 192.378 585.064 193.085 584.355
C 196.632 580.792 199.308 576.52 202.376 572.56
C 211.043 561.373 219.709 550.184 228.393 539.008
C 232.828 533.3 237.242 527.57 241.627 521.823
C 243.08 519.917 244.377 517.881 245.937 516.061
C 246.342 515.589 248.7 513.041 248.086 512.865
C 246.422 513.421 245.105 515.004 243.661 515.971
C 238.948 519.127 234.852 522.77 230.565 526.481
C 218.393 537.019 206.179 547.659 193.594 557.699
C 189.281 561.14 184.787 564.421 180.672 568.098
C 179.417 569.218 176.919 570.69 176.885 572.532
C 176.138 571.763 175.101 572.971 174.448 573.523
C 172.127 575.486 169.889 577.555 167.595 579.551
C 160.987 585.301 154.228 590.856 147.474 596.436
C 144.477 598.912 141.633 602.159 138.382 604.255
C 137.157 603.834 135.718 602.703 135.537 601.398
C 136.84 599.883 138.475 598.797 139.961 597.478
C 143.608 594.24 147.407 591.176 151.167 588.071
C 158.637 581.902 165.855 574.691 173.973 569.388
C 174.591 569.298 175.161 568.602 175.644 568.212
C 177.108 566.991 178.491 565.66 179.848 564.319
C 195.165 553.249 209.081 540.096 223.598 528.026
C 229.27 523.31 234.998 518.692 240.616 513.917
C 242.005 512.736 243.562 511.889 245.075 510.886
C 245.574 510.555 246.505 510.077 245.938 509.501
C 244.939 509.453 243.759 510.423 242.924 510.898
C 241.515 511.7 239.996 512.25 238.535 512.944
C 216.346 524.587 194.147 536.346 171.777 547.628
C 170.478 548.285 169.197 548.988 167.906 549.663
C 167.609 549.818 166.995 550.301 166.633 550.256
C 164.526 549.988 166.036 548.847 166.06 548.184
C 166.073 547.809 165.371 546.986 165.497 546.902
C 168.925 544.619 172.973 542.967 176.626 541.068
C 181.909 538.321 187.195 535.579 192.46 532.798
C 205.855 525.723 219.651 519.328 233.194 512.556
C 236.306 511 239.222 509.061 242.463 507.828
C 243.119 507.578 245.558 506.972 245.312 505.96
C 244.232 505.439 241.455 506.707 240.295 507.015
C 235.872 508.191 231.358 509.092 226.916 510.265
C 216.497 513.017 205.961 515.319 195.548 518.098
C 188.665 519.935 181.851 522.015 174.941 523.763
C 169.765 525.073 164.607 526.645 159.348 527.583
C 157.821 527.856 153.916 529.77 154.279 526.708
C 154.568 524.802 157.663 524.565 159.27 524.115
C 164.777 522.574 170.379 521.086 175.946 519.783
C 191.465 516.153 206.746 511.644 222.289 508.123
C 227.564 506.928 233.045 505.897 238.177 504.192
C 239.718 503.68 242.338 503.896 243.662 503.015
C 244.036 502.767 243.908 502.361 243.51 502.295
C 242.514 502.132 241.313 502.254 240.308 502.314
C 237.872 502.458 235.423 502.128 232.997 502.386
C 225.865 503.147 218.567 502.543 211.396 502.869
C 196.657 503.54 181.889 503.76 167.143 504.228
C 160.762 504.431 153.718 503.45 147.457 504.807
C 146.185 504.244 143.322 504.861 141.875 504.905
C 137.03 505.054 132.175 505.23 127.322 505.362
C 110.776 505.813 94.223 506.294 77.668 506.493
C 72.278 506.557 66.891 506.702 61.501 506.754
C 60.031 506.768 57.031 507.461 55.85 506.529
C 55.085 505.321 55.331 503.708 56.519 502.876
C 59.214 502.418 62.136 502.737 64.87 502.674
C 70.637 502.543 76.406 502.489 82.174 502.438
C 96.629 502.31 111.081 501.638 125.534 501.529
C 131.021 501.488 136.523 501.312 142.01 501.184
C 143.054 501.16 146.743 501.614 146.983 500.523 Z"
opacity="1" fill="rgb(8,30,124)" fill-rule="evenodd" />
<path d="
M 101.817 538.401
C 105.426 537.587 109.037 536.77 112.655 536.036
C 113.191 537.307 113.807 538.192 113.448 539.614
C 111.966 541.362 107.098 541.683 104.912 542.179
C 104.146 542.353 103.187 542.886 102.407 542.6
C 101.946 541.415 101.468 539.652 101.817 538.401 Z"
opacity="1" fill="rgb(13,31,132)" fill-rule="evenodd" />
<path d="
M 147.457 504.807
C 153.718 503.45 160.762 504.431 167.143 504.228
C 181.889 503.76 196.657 503.54 211.396 502.869
C 218.567 502.543 225.865 503.147 232.997 502.386
C 235.423 502.128 237.872 502.458 240.308 502.314
C 241.313 502.254 242.514 502.132 243.51 502.295
C 243.908 502.361 244.036 502.767 243.662 503.015
C 242.338 503.896 239.718 503.68 238.177 504.192
C 233.045 505.897 227.564 506.928 222.289 508.123
C 206.746 511.644 191.465 516.153 175.946 519.783
C 170.379 521.086 164.777 522.574 159.27 524.115
C 157.663 524.565 154.568 524.802 154.279 526.708
C 153.916 529.77 157.821 527.856 159.348 527.583
C 164.607 526.645 169.765 525.073 174.941 523.763
C 181.851 522.015 188.665 519.935 195.548 518.098
C 205.961 515.319 216.497 513.017 226.916 510.265
C 231.358 509.092 235.872 508.191 240.295 507.015
C 241.455 506.707 244.232 505.439 245.312 505.96
C 245.558 506.972 243.119 507.578 242.463 507.828
C 239.222 509.061 236.306 511 233.194 512.556
C 219.651 519.328 205.855 525.723 192.46 532.798
C 187.195 535.579 181.909 538.321 176.626 541.068
C 172.973 542.967 168.925 544.619 165.497 546.902
C 165.371 546.986 166.073 547.809 166.06 548.184
C 166.036 548.847 164.526 549.988 166.633 550.256
C 166.995 550.301 167.609 549.818 167.906 549.663
C 169.197 548.988 170.478 548.285 171.777 547.628
C 171.681 548.247 171.777 548.948 171.494 549.528
C 171.237 550.054 170.671 550.349 170.674 551.006
C 170.682 552.516 172.32 553.912 173.163 555.017
C 174.471 556.733 175.135 558.806 176.255 560.636
C 176.772 561.48 178.708 564.93 179.848 564.319
C 178.491 565.66 177.108 566.991 175.644 568.212
C 175.161 568.602 174.591 569.298 173.973 569.388
C 173.355 567.614 171.156 565.766 169.994 564.269
C 167.177 560.64 164.126 556.695 162.079 552.568
C 158.562 553.661 155.464 555.666 152.19 557.327
C 146.317 560.305 140.435 563.27 134.611 566.343
C 132.26 567.584 129.851 568.715 127.533 570.018
C 126.432 570.637 125.144 571.717 123.84 571.729
C 122.653 571.329 121.788 569.768 121.891 568.565
C 125.131 565.925 129.415 564.384 133.132 562.505
C 138.551 559.765 143.893 556.87 149.378 554.263
C 151.812 553.106 154.215 551.893 156.658 550.751
C 157.656 550.284 159.31 549.798 160.015 548.964
C 157.86 544.278 155.253 540.026 153.655 535.044
C 153.233 533.727 152.67 532.415 152.386 531.064
C 152.295 530.631 152.443 529.575 152.104 529.368
C 143.665 531.364 135.007 533.474 126.891 536.526
C 125.853 536.215 125.46 533.847 125.444 532.903
C 127.52 531.419 130.425 531.006 132.868 530.368
C 136.61 529.39 140.365 528.494 144.119 527.572
C 146.361 527.022 148.783 526.728 150.91 525.814
C 149.96 521.122 148.775 516.522 147.989 511.788
C 147.628 509.614 146.99 506.981 147.457 504.807 Z"
opacity="1" fill="rgb(19,40,157)" fill-rule="evenodd" />
<path d="
M 127.885 402.016
C 128.344 401.246 128.68 400.619 129.47 400.146
C 131.808 401.311 134.748 403.056 136.045 405.429
C 135.882 406.707 134.696 407.479 133.84 408.343
C 133.281 408.22 132.783 407.539 132.335 407.197
C 130.806 406.034 128.819 405.132 127.601 403.627
C 127.587 403.006 127.676 402.598 127.885 402.016 Z"
opacity="1" fill="rgb(10,30,136)" fill-rule="evenodd" />
<path d="
M 147.966 479.918
C 148.937 479.916 150.035 480.508 151.049 480.636
C 155.949 481.251 160.691 482.489 165.532 483.429
C 180.101 486.258 194.569 489.606 209.126 492.495
C 214.562 493.573 220.019 494.51 225.444 495.643
C 228.342 496.248 231.143 497.236 234.053 497.783
C 235.881 498.128 238.144 498.369 239.865 499.025
C 240.185 499.147 241.693 499.717 241.405 500.282
C 241.09 500.899 240.477 500.442 240.015 500.364
C 238.685 500.138 237.38 500.133 236.044 499.85
C 233.844 499.383 231.484 499.651 229.254 499.669
C 226.306 499.692 223.36 499.567 220.411 499.595
C 201.86 499.774 183.29 500.75 164.745 500.687
C 160.223 500.672 155.694 500.874 151.173 500.762
C 150.323 500.741 147.478 501.071 146.983 500.523
C 146.622 498.53 146.829 496.273 146.831 494.247
C 146.835 489.628 146.804 484.403 147.966 479.918 Z"
opacity="1" fill="rgb(20,41,160)" fill-rule="evenodd" />
<path d="
M 154.028 455.49
C 156.217 455.831 158.759 457.32 160.759 458.308
C 164.657 460.235 168.638 462.169 172.632 463.893
C 180.351 467.225 187.917 470.939 195.604 474.349
C 201.815 477.104 208.182 479.556 214.245 482.623
C 220.874 485.976 227.776 488.733 234.486 491.884
C 237.133 493.127 239.925 494.141 242.377 495.736
C 242.665 495.923 244.758 497.339 244.308 497.724
C 243.902 498.069 243.139 497.71 242.736 497.565
C 241.3 497.051 239.814 496.651 238.414 496.042
C 233.361 493.844 227.126 492.545 221.733 491.405
C 204.522 487.767 187.203 484.63 170.015 480.883
C 165.512 479.902 161.029 478.821 156.515 477.884
C 153.845 477.329 150.885 477.019 148.36 475.978
C 148.4 471.932 150.048 467.588 151.163 463.72
C 151.936 461.04 152.62 457.91 154.028 455.49 Z"
opacity="1" fill="rgb(19,41,160)" fill-rule="evenodd" />
<path d="
M 166.052 432.363
C 167.422 433.814 169.306 434.637 170.929 435.787
C 173.686 437.74 176.286 439.945 178.917 442.063
C 194.399 454.53 211.218 465.507 226.272 478.484
C 230.672 482.278 235.321 486.067 239.964 489.552
C 241.376 490.612 242.913 491.482 244.362 492.489
C 244.687 492.715 245.595 493.154 245.731 493.563
C 245.84 493.892 245.257 494.933 244.863 494.924
C 244.428 494.914 243.512 493.56 242.988 493.291
C 240.522 492.025 238.031 490.831 235.56 489.576
C 228.766 486.127 221.973 482.642 215.059 479.43
C 201.28 473.027 187.461 466.705 173.598 460.452
C 169.537 458.62 165.489 456.796 161.421 454.981
C 159.564 454.153 156.733 453.294 155.239 451.958
C 157.087 447.368 159.398 442.769 161.938 438.52
C 163.201 436.405 164.858 434.505 166.052 432.363 Z"
opacity="1" fill="rgb(20,42,160)" fill-rule="evenodd" />
<path d="
M 167.992 429.127
C 170.28 427.933 172.415 424.053 173.97 422.002
C 176.472 418.702 179.679 415.854 182.544 412.883
C 183.308 413.066 184.323 413.337 184.593 414.185
C 184.778 414.769 184.205 414.831 184.687 415.307
C 187.668 418.256 190.101 421.63 192.851 424.783
C 202.618 435.98 211.368 448.092 221.204 459.216
C 228.226 467.158 234.834 475.481 241.661 483.585
C 243.22 485.435 244.756 487.344 246.267 489.228
C 246.56 489.595 247.708 490.823 247.206 491.334
C 246.687 491.863 245.589 490.425 245.295 490.138
C 243.7 488.581 241.902 487.281 240.206 485.848
C 232.922 479.696 225.577 473.621 217.978 467.856
C 205.905 458.695 193.93 449.41 182.029 440.028
C 178.534 437.273 174.79 434.863 171.392 431.988
C 170.453 431.193 168.44 430.249 167.992 429.127 Z"
opacity="1" fill="rgb(20,42,161)" fill-rule="evenodd" />
<path d="
M 171.777 547.628
C 194.147 536.346 216.346 524.587 238.535 512.944
C 239.996 512.25 241.515 511.7 242.924 510.898
C 243.759 510.423 244.939 509.453 245.938 509.501
C 246.505 510.077 245.574 510.555 245.075 510.886
C 243.562 511.889 242.005 512.736 240.616 513.917
C 234.998 518.692 229.27 523.31 223.598 528.026
C 209.081 540.096 195.165 553.249 179.848 564.319
C 178.708 564.93 176.772 561.48 176.255 560.636
C 175.135 558.806 174.471 556.733 173.163 555.017
C 172.32 553.912 170.682 552.516 170.674 551.006
C 170.671 550.349 171.237 550.054 171.494 549.528
C 171.777 548.948 171.681 548.247 171.777 547.628 Z"
opacity="1" fill="rgb(20,41,162)" fill-rule="evenodd" />
<path d="
M 191.549 586.737
C 191.725 585.722 188.684 583.885 187.847 583.128
C 184.194 579.827 179.858 576.472 176.885 572.532
C 176.919 570.69 179.417 569.218 180.672 568.098
C 184.787 564.421 189.281 561.14 193.594 557.699
C 206.179 547.659 218.393 537.019 230.565 526.481
C 234.852 522.77 238.948 519.127 243.661 515.971
C 245.105 515.004 246.422 513.421 248.086 512.865
C 248.7 513.041 246.342 515.589 245.937 516.061
C 244.377 517.881 243.08 519.917 241.627 521.823
C 237.242 527.57 232.828 533.3 228.393 539.008
C 219.709 550.184 211.043 561.373 202.376 572.56
C 199.308 576.52 196.632 580.792 193.085 584.355
C 192.378 585.064 192.245 586.238 191.549 586.737 Z"
opacity="1" fill="rgb(19,40,159)" fill-rule="evenodd" />
<path d="
M 185.956 409.995
C 189.216 406.435 194.088 403.538 198.183 401.037
C 199.678 400.124 201.305 398.741 203.005 398.287
C 204.704 400.107 205.746 402.867 206.843 405.089
C 208.893 409.238 211.041 413.326 213.231 417.402
C 222.291 434.257 230.406 451.629 239.761 468.328
C 242.737 473.639 245.377 479.134 248.289 484.482
C 248.976 485.743 249.884 487.03 250.291 488.413
C 250.382 488.722 250.61 489.561 250.299 489.839
C 250.127 489.993 248.69 488.571 248.565 488.435
C 246.914 486.628 245.432 484.499 243.961 482.539
C 237.653 474.138 231.136 465.854 224.501 457.707
C 214.736 445.719 205.024 433.633 194.953 421.902
C 192.515 419.062 189.927 416.27 187.726 413.235
C 187.179 412.482 185.632 410.867 185.956 409.995 Z"
opacity="1" fill="rgb(21,43,163)" fill-rule="evenodd" />
<path d="
M 197.959 590.56
C 197.449 589.362 196.151 588.166 196.156 586.843
C 200.109 579.541 206.343 573.04 211.466 566.543
C 218.659 557.421 225.394 547.969 232.402 538.708
C 236.464 533.34 240.549 527.985 244.61 522.616
C 246.095 520.652 247.21 518.359 248.779 516.487
C 249.296 515.871 250.798 513.621 250.984 515.279
C 250.493 516.637 249.52 517.742 248.906 519.039
C 246.74 523.613 244.734 528.315 242.652 532.94
C 236.123 547.441 230.079 562.155 223.405 576.593
C 221.287 581.175 219.269 585.804 217.104 590.364
C 216.553 591.524 215.908 592.637 215.294 593.764
C 215.233 593.876 214.761 594.51 214.806 594.687
C 214.9 595.061 215.588 594.739 215.943 594.887
C 216.714 595.208 217.15 596.193 217.875 596.443
C 217.555 597.394 216.867 598.175 216.641 599.149
C 216.621 599.753 216.683 600.273 217.058 600.763
C 215.874 600.313 215.573 601.731 215.146 602.83
C 214.066 605.609 212.794 608.343 211.584 611.067
C 207.798 619.589 204.005 628.129 199.887 636.5
C 198.81 638.688 197.866 640.948 196.674 643.077
C 196.219 643.89 195.809 644.844 194.973 645.324
C 193.616 645.368 192.369 644.272 192.119 642.954
C 192.467 641.748 193.351 640.663 193.909 639.536
C 195.188 636.955 196.342 634.311 197.595 631.717
C 202.817 620.902 208.658 609.912 212.764 598.624
C 211.488 598.445 210.286 597.485 209.097 596.985
C 205.249 595.366 201.255 593.123 197.959 590.56 Z"
opacity="1" fill="rgb(20,40,157)" fill-rule="evenodd" />
<path d="
M 206.854 396.108
C 213.484 392.972 220.2 389.52 227.485 388.128
C 230.48 396.834 232.14 406.023 234.559 414.927
C 238.993 431.251 243.175 447.705 247.206 464.129
C 248.654 470.03 250.187 475.993 251.912 481.812
C 252.212 482.823 252.967 487.254 254.474 487.116
C 254.885 487.079 255.148 486.472 255.181 486.125
C 255.299 484.853 254.431 483.045 254.198 481.769
C 253.11 475.815 251.973 469.684 250.284 463.869
C 246.724 451.608 244.527 438.963 241.147 426.649
C 238.916 418.52 236.996 410.304 235.11 402.085
C 233.997 397.235 232.288 392.271 231.824 387.311
C 233.448 386.248 235.759 386.07 237.639 385.667
C 242.882 384.544 248.493 384.087 253.849 384.259
C 254.299 382.409 253.878 380.031 253.838 378.125
C 253.746 373.777 253.514 369.435 253.39 365.09
C 252.989 351.038 252.605 336.989 252.181 322.94
C 252.06 318.953 251.992 314.966 251.862 310.979
C 251.8 309.073 251.314 306.787 251.811 304.941
C 252.315 304.393 252.798 303.991 253.509 303.749
C 256.148 304.029 256.061 306.4 256.088 308.5
C 256.148 313.138 256.263 317.777 256.368 322.415
C 256.683 336.278 257.026 350.135 257.375 364
C 257.486 368.423 257.612 372.841 257.745 377.263
C 257.81 379.414 258.168 381.902 257.833 384.02
C 257.542 385.171 257.043 386.191 257.587 387.353
C 256.807 386.79 254.664 386.361 254.019 387.431
C 253.846 387.718 254.094 388.716 254.114 389.04
C 254.184 390.189 254.121 391.358 254.162 392.51
C 254.311 396.669 254.281 400.841 254.331 405.003
C 254.576 425.469 255.116 445.933 255.461 466.399
C 255.554 471.932 255.942 477.45 255.862 482.993
C 255.843 484.313 256.423 487.842 254.772 488.397
C 252.737 489.081 251.355 485.499 250.71 484.208
C 247.941 478.663 245.321 473.024 242.582 467.443
C 235.408 452.828 228.309 438.074 220.589 423.741
C 217.281 417.601 213.992 411.387 210.968 405.101
C 209.572 402.199 207.77 399.199 206.854 396.108 Z"
opacity="1" fill="rgb(24,45,166)" fill-rule="evenodd" />
<path d="
M 216.785 347.01
C 217.098 346.341 217.498 345.811 217.928 345.215
C 218.949 345.232 220.131 345.289 220.915 346.01
C 221.406 348.76 222.912 351.831 222.924 354.594
C 222.596 355.76 220.274 356.213 219.285 355.948
C 217.963 354.504 218.073 352.461 217.545 350.688
C 217.169 349.424 216.586 348.362 216.785 347.01 Z"
opacity="1" fill="rgb(16,35,139)" fill-rule="evenodd" />
<path d="
M 217.875 596.443
C 220.585 591.744 222.401 586.376 224.652 581.443
C 230.515 568.595 235.687 555.394 241.636 542.599
C 244.38 536.697 246.557 530.543 249.276 524.635
C 250.126 522.79 250.726 520.907 251.465 519.037
C 251.686 518.478 252.181 517.942 252.24 517.339
C 252.255 517.184 252.311 516.08 252.33 516.14
C 253.185 518.862 252.334 521.326 251.947 524.021
C 251.258 528.815 250.42 533.577 249.545 538.341
C 246.583 554.463 243.99 570.642 240.872 586.74
C 239.982 591.334 238.855 595.9 237.728 600.44
C 237.288 602.212 236.141 604.597 236.436 606.423
C 235.017 606.943 231.782 605.651 230.373 605.148
C 226.07 603.614 221.479 601.902 217.058 600.763
C 216.683 600.273 216.621 599.753 216.641 599.149
C 216.867 598.175 217.555 597.394 217.875 596.443 Z"
opacity="1" fill="rgb(19,41,160)" fill-rule="evenodd" />
<path d="
M 231.824 387.311
C 232.288 392.271 233.997 397.235 235.11 402.085
C 236.996 410.304 238.916 418.52 241.147 426.649
C 244.527 438.963 246.724 451.608 250.284 463.869
C 251.973 469.684 253.11 475.815 254.198 481.769
C 254.431 483.045 255.299 484.853 255.181 486.125
C 255.148 486.472 254.885 487.079 254.474 487.116
C 252.967 487.254 252.212 482.823 251.912 481.812
C 250.187 475.993 248.654 470.03 247.206 464.129
C 243.175 447.705 238.993 431.251 234.559 414.927
C 232.14 406.023 230.48 396.834 227.485 388.128
C 227.617 386.635 226.712 384.654 226.311 383.221
C 225.415 380.014 224.617 376.786 223.884 373.539
C 223.537 371.999 222.86 370.479 223.044 368.883
C 223.88 368.345 225.372 367.587 226.313 368.161
C 227.893 372.852 228.881 377.802 230.073 382.61
C 230.319 383.602 230.676 387.101 231.824 387.311 Z"
opacity="1" fill="rgb(7,32,123)" fill-rule="evenodd" />
<path d="
M 227.984 651.104
C 228.459 648.347 228.858 645.571 229.279 642.805
C 229.512 641.283 229.594 639.703 230.382 638.349
C 231.652 638.267 232.824 638.535 234.039 638.88
C 233.855 642.64 232.911 646.188 232.331 649.886
C 232.148 651.053 232.213 653.402 231.23 654.183
C 230.421 654.35 229.175 654.879 228.377 654.569
C 228.242 653.369 227.887 652.326 227.984 651.104 Z"
opacity="1" fill="rgb(17,36,133)" fill-rule="evenodd" />
<path d="
M 257.879 387.966
C 260.126 389.01 262.627 389.546 264.94 390.452
C 268.728 391.936 272.42 394.058 275.713 396.441
C 294.135 409.777 305.923 429.142 320.059 446.475
C 332.892 462.21 347.657 476.852 356.89 495.148
C 363.821 508.884 364.593 523.954 363.447 538.972
C 363.397 539.631 362.745 540.041 362.472 540.597
C 362.255 541.038 362.543 541.434 362.417 541.893
C 362.091 543.079 361.26 544.267 360.771 545.406
C 357.773 552.95 352.415 560.484 347.23 566.682
C 332.351 584.47 312.997 597.684 290.769 604.544
C 285.623 606.132 280.251 607.314 274.915 608.055
C 271.76 608.493 268.464 608.35 265.346 608.958
C 264.749 609.886 265.234 612.258 265.251 613.426
C 265.305 617.263 265.587 621.084 265.662 624.911
C 265.883 636.167 266.516 647.389 266.799 658.638
C 266.906 662.854 268.061 668.116 267.135 672.233
C 266.044 672.656 264.67 672.52 263.53 672.437
C 262.511 671.438 262.927 669.121 262.902 667.789
C 262.829 663.923 262.683 660.06 262.594 656.195
C 262.232 640.534 261.171 624.785 261.503 609.124
C 258.148 608.545 254.544 608.974 251.138 608.768
C 247.355 608.54 243.656 607.732 239.889 607.467
C 239.374 605.578 240.756 602.334 241.163 600.414
C 242.408 594.536 243.577 588.641 244.865 582.775
C 246.585 574.937 247.679 566.903 249.048 558.997
C 250.786 548.964 252.94 538.975 254.54 528.924
C 255.912 520.309 257.227 511.649 258.046 502.966
C 258.568 497.44 258.085 491.891 258.277 486.361
C 258.757 472.482 258.973 458.574 258.673 444.68
C 258.421 433 258.307 421.306 258.079 409.617
C 257.938 402.433 257.42 395.136 257.879 387.966 Z"
opacity="1" fill="rgb(19,43,166)" fill-rule="evenodd" />
<path d="
M 257.833 384.02
C 262.316 382.764 267.273 383.483 271.841 383.839
C 285.031 384.87 297.944 388.845 309.701 394.856
C 339.052 409.861 361.649 437.416 369.18 469.674
C 371.773 480.777 372.437 492.074 371.883 503.42
C 371.387 513.589 369.101 523.42 365.923 533.054
C 364.593 537.084 363.384 541.988 360.771 545.406
C 361.26 544.267 362.091 543.079 362.417 541.893
C 362.543 541.434 362.255 541.038 362.472 540.597
C 362.745 540.041 363.397 539.631 363.447 538.972
C 364.593 523.954 363.821 508.884 356.89 495.148
C 347.657 476.852 332.892 462.21 320.059 446.475
C 305.923 429.142 294.135 409.777 275.713 396.441
C 272.42 394.058 268.728 391.936 264.94 390.452
C 262.627 389.546 260.126 389.01 257.879 387.966
C 257.711 387.546 257.808 387.751 257.587 387.353
C 257.043 386.191 257.542 385.171 257.833 384.02 Z"
opacity="1" fill="rgb(56,77,185)" fill-rule="evenodd" />
<path d="
M 263.252 685.532
C 263.35 685.318 263.447 685.104 263.545 684.889
C 264.925 683.924 266.641 684 267.914 685.151
C 268.265 687.208 268.739 690.412 267.936 692.397
C 266.976 693.491 265.034 693.211 263.821 692.757
C 262.676 691.317 263.123 687.313 263.252 685.532 Z"
opacity="1" fill="rgb(16,36,141)" fill-rule="evenodd" />
<path d="
M 437.415 425.613
C 437.518 424.948 437.493 425.353 437.367 424.397
C 441.301 423.831 445.539 424.245 449.51 424.241
C 450.619 424.24 453.077 423.802 453.908 424.49
C 462.153 441.351 470.856 458.098 479.52 474.753
C 481.611 478.774 483.601 482.896 485.479 487.021
C 485.81 487.75 486.81 490.794 487.486 490.951
C 489.936 485.083 493.251 479.472 496.114 473.79
C 501.152 463.794 506.162 453.782 511.218 443.795
C 513.484 439.321 515.774 434.852 517.942 430.329
C 518.805 428.531 519.696 425.537 521.172 424.188
C 526.547 423.928 532.216 423.898 537.583 424.279
C 537.968 432.649 537.635 441.115 537.627 449.497
C 537.612 464.998 537.618 480.498 537.633 495.998
C 537.64 502.665 537.629 509.331 537.639 515.998
C 537.643 518.833 537.078 522.466 537.66 525.218
C 536.281 524.866 534.44 525.154 533.007 525.135
C 529.576 525.091 526.132 525.075 522.703 525.187
C 523.017 508.643 522.735 492.056 522.757 475.505
C 522.765 470.004 522.719 464.503 522.812 459.003
C 522.845 457.07 522.917 455.138 522.961 453.205
C 522.967 452.934 523.018 450.238 522.59 450.94
C 516.245 463.785 509.781 476.578 503.386 489.4
C 501.043 494.098 498.669 498.775 496.289 503.452
C 495.004 505.978 493.856 508.798 492.231 511.122
C 490.027 511.666 487.258 511.198 484.994 511.186
C 484.156 511.182 483.159 511.4 482.361 511.122
C 480.153 505.542 476.928 500.224 474.216 494.872
C 469.284 485.134 464.323 475.375 459.571 465.55
C 457.805 461.9 455.946 458.299 454.106 454.688
C 453.75 453.989 452.765 451.244 452.123 451.372
C 452.638 468.733 452.407 486.137 452.445 503.508
C 452.461 510.593 451.904 517.927 452.426 524.98
C 449.663 525.201 446.898 524.913 444.128 524.94
C 441.953 524.961 439.627 525.272 437.469 525.027
C 437.549 512.363 437.421 499.672 437.431 486.995
C 437.436 480.189 437.802 473.283 437.531 466.488
C 437.214 458.511 437.427 450.484 437.408 442.497
C 437.395 436.918 437.001 431.175 437.415 425.613 Z"
opacity="1" fill="rgb(50,45,52)" fill-rule="evenodd" />
<path d="
M 439.288 554.871
C 440.577 554.914 441.869 554.827 443.159 554.862
C 443.582 564.753 443.684 575.117 443.083 584.995
C 441.83 584.967 440.524 585.013 439.275 585.091
C 440.116 575.088 438.825 564.893 439.288 554.871 Z"
opacity="1" fill="rgb(48,44,46)" fill-rule="evenodd" />
<path d="
M 450.805 562.785
C 451.963 562.731 453.096 562.729 454.255 562.731
C 454.323 563.932 454.272 565.133 454.275 566.335
C 454.687 566.607 456.383 564.487 456.88 564.131
C 458.776 562.775 461.148 562.4 463.436 562.645
C 466.595 562.983 469.147 565.45 469.607 568.594
C 470.401 574.023 469.423 579.679 469.731 585.132
C 468.552 585.232 467.361 585.066 466.192 585.166
C 465.904 581.268 466.125 577.324 466.105 573.415
C 466.095 571.517 466.292 569.158 465.156 567.53
C 462.513 563.74 457.356 566.191 455.498 569.328
C 454.438 571.115 454.612 573.215 454.628 575.227
C 454.655 578.482 454.782 581.77 454.607 585.01
C 453.429 585.195 452.246 585.071 451.065 584.94
C 450.534 577.66 450.642 570.086 450.805 562.785 Z"
opacity="1" fill="rgb(53,47,51)" fill-rule="evenodd" />
<path d="
M 473.839 562.956
C 474.837 562.893 476.716 562.314 477.636 562.749
C 477.639 560.641 477.71 558.486 477.86 556.381
C 478.67 556.191 480.724 555.881 481.381 556.431
C 481.323 558.412 481.04 560.913 481.638 562.812
C 483.316 562.651 485.04 562.644 486.723 562.707
C 486.913 562.996 487.294 565.48 486.978 565.818
C 485.183 565.83 483.369 565.704 481.587 565.936
C 481.004 569.535 481.335 573.314 481.291 576.952
C 481.27 578.648 481.249 580.538 482.809 581.62
C 483.773 582.288 485.983 581.764 487.072 581.602
C 487.387 582.549 487.631 583.417 487.503 584.425
C 484.753 586.276 479.443 585.417 478.253 582.099
C 477.529 580.08 477.767 577.734 477.786 575.625
C 477.815 572.45 477.672 569.207 477.845 566.048
C 477.105 565.541 474.914 565.81 474.012 565.872
C 473.522 565.458 473.633 563.522 473.839 562.956 Z"
opacity="1" fill="rgb(52,47,50)" fill-rule="evenodd" />
<path d="
M 490.938 570.573
C 491.569 568.535 492.545 566.198 494.171 564.755
C 497.984 561.371 504.582 561.694 508.18 565.186
C 511.071 567.991 511.014 571.377 511.522 575.029
C 505.959 576.207 499.848 574.137 494.283 575.303
C 494.44 576.52 494.416 577.813 495.081 578.903
C 497.805 583.374 504.588 583.246 507.496 579.209
C 508.384 579.141 509.796 580.128 510.43 580.735
C 510.285 581.696 508.766 582.716 508.024 583.238
C 505.427 585.065 502.16 585.705 499.044 585.088
C 492.644 583.82 489.251 576.681 490.938 570.573 Z
M 494.454 570.572
C 494.321 571.127 494.175 571.679 494.031 572.231
C 498.647 572.038 503.285 572.2 507.904 572.189
C 507.987 571.646 507.627 570.908 507.502 570.367
C 506.603 566.484 502.925 564.55 499.069 565.693
C 496.574 566.433 495.434 568.357 494.454 570.572 Z"
opacity="1" fill="rgb(49,44,44)" fill-rule="evenodd" />
<path d="
M 517.384 553.424
C 518.068 553.422 520.388 553.003 520.792 553.535
C 521.216 560.119 520.733 566.885 520.766 573.49
C 520.778 575.962 520.17 579.578 521.157 581.88
C 521.992 582.869 521.978 583.671 521.932 584.936
C 520.507 584.9 519.072 584.949 517.686 584.574
C 516.529 581.64 517.188 577.61 517.206 574.51
C 517.246 567.594 517.352 560.635 517.12 553.724
C 517.208 553.624 517.296 553.524 517.384 553.424 Z"
opacity="1" fill="rgb(49,43,45)" fill-rule="evenodd" />
<path d="
M 528.668 553.688
C 529.902 553.471 531.065 553.487 532.311 553.504
C 532.206 561.324 532.233 569.166 532.272 576.99
C 532.282 578.952 532.132 580.87 532.666 582.777
C 532.806 583.276 533.059 584.548 532.619 584.936
C 531.454 584.957 530.322 584.989 529.168 584.792
C 527.989 582.051 528.759 577.94 528.741 575.008
C 528.696 567.904 528.604 560.791 528.668 553.688 Z"
opacity="1" fill="rgb(49,42,42)" fill-rule="evenodd" />
<path d="
M 539.385 555.576
C 539.923 554.585 540.56 553.819 541.575 553.297
C 544.016 553.312 544.514 555.475 543.924 557.442
C 543.312 558.411 542.055 558.687 541.034 558.234
C 540.401 557.527 539.887 556.79 539.358 556.007
C 539.367 555.864 539.376 555.72 539.385 555.576 Z"
opacity="1" fill="rgb(48,42,45)" fill-rule="evenodd" />
<path d="
M 540.279 562.822
C 541.416 562.828 542.548 562.74 543.689 562.747
C 543.99 564.622 543.724 566.598 543.716 568.491
C 543.701 572.158 543.709 575.824 543.712 579.491
C 543.713 580.855 543.811 582.222 543.803 583.584
C 543.802 583.85 543.911 584.816 543.668 584.941
C 542.562 584.89 541.368 585.047 540.257 585.087
C 540.369 577.769 539.428 570.09 540.279 562.822 Z"
opacity="1" fill="rgb(47,44,45)" fill-rule="evenodd" />
<path d="
M 549.392 587.046
C 550.01 585.451 551.367 584.018 552.946 583.386
C 552.905 582.469 551.081 581.653 550.859 580.468
C 550.908 578.795 552.303 577.392 553.486 576.317
C 553.519 575.705 552.726 575.196 552.355 574.745
C 551.544 573.758 550.873 572.397 550.749 571.115
C 550.278 566.27 554.162 563.017 558.666 562.625
C 560.258 562.486 561.786 563.207 563.251 563.155
C 565.331 561.097 567.056 560.025 570.104 560.427
C 570.383 561.385 570.404 562.414 570.391 563.409
C 568.711 563.422 566.506 563.321 565.556 564.974
C 570.388 569.183 568.196 576.048 562.287 577.971
C 559.773 578.789 557.759 577.603 555.335 577.786
C 554.736 578.536 554.327 579.086 554.18 580.067
C 555.137 581.941 557.248 581.726 559.082 581.718
C 563.071 581.702 570.798 581.247 570.659 587.153
C 570.642 587.894 570.482 588.639 570.233 589.335
C 568.179 595.068 558.657 594.626 554.013 593.394
C 551.07 592.614 548.766 590.247 549.392 587.046 Z
M 552.503 587.609
C 552.49 589.073 553.757 590.374 555.157 590.771
C 557.819 591.526 562.41 591.419 564.946 590.308
C 566.816 589.489 567.877 587.559 566.652 585.715
C 564.753 583.762 560.095 584.877 557.607 584.774
C 556.625 584.734 555.441 584.447 554.516 584.88
C 553.339 585.432 552.884 586.436 552.503 587.609 Z
M 554.369 569.031
C 552.113 575.402 563.019 577.941 564.926 571.763
C 566.902 565.36 556.566 562.827 554.369 569.031 Z"
opacity="1" fill="rgb(48,45,46)" fill-rule="evenodd" />
<path d="
M 561.98 428.603
C 562.086 426.922 562.523 425.134 563.383 423.681
C 568.532 414.972 581.845 420.384 581.168 429.898
C 581.055 431.485 580.565 433.1 579.785 434.484
C 574.939 443.07 561.392 437.954 561.98 428.603 Z"
opacity="1" fill="rgb(51,47,52)" fill-rule="evenodd" />
<path d="
M 563.503 524.13
C 564.186 514.679 563.572 504.978 563.607 495.501
C 563.661 480.584 564.087 465.602 563.655 450.692
C 567.181 450.64 570.712 450.673 574.24 450.686
C 575.509 450.691 577.712 450.286 578.852 450.868
C 578.337 456.816 578.814 463.026 578.83 469.001
C 578.862 481.005 578.915 493.009 578.943 505.013
C 578.955 509.981 578.948 514.95 578.919 519.918
C 578.912 521.128 579.487 524.151 578.867 525.144
C 573.798 525.05 568.656 524.902 563.595 525.169
C 563.53 524.493 563.56 524.84 563.503 524.13 Z"
opacity="1" fill="rgb(51,47,51)" fill-rule="evenodd" />
<path d="
M 573.975 572.096
C 574.833 567.992 577.074 564.174 581.265 562.804
C 588.541 560.424 596.125 567.533 594.625 574.986
C 592.311 574.719 589.871 575.081 587.547 575.113
C 584.302 575.159 580.939 574.98 577.722 575.365
C 577.032 582.625 587.253 584.034 590.989 579.193
C 591.911 579.27 593.064 580.027 593.845 580.531
C 593.389 581.748 592.127 582.561 591.108 583.275
C 587.872 585.54 583.374 586.041 579.784 584.206
C 575.405 581.967 573.419 576.815 573.975 572.096 Z
M 577.498 571.641
C 577.482 571.807 577.466 571.973 577.45 572.138
C 581.765 571.537 586.828 572.076 591.199 572.191
C 590.645 566.771 585.151 563.201 580.323 566.652
C 578.509 567.949 578.23 569.702 577.498 571.641 Z"
opacity="1" fill="rgb(53,47,49)" fill-rule="evenodd" />
<path d="
M 600.249 562.768
C 601.382 562.745 602.482 562.75 603.614 562.802
C 604.014 564.073 603.567 565.527 603.584 566.83
C 603.603 567.188 604.565 565.844 604.723 565.659
C 605.366 564.905 605.946 564.168 606.819 563.668
C 609.257 562.271 613.029 561.952 615.508 563.405
C 620.665 566.426 619.272 574.5 619.272 579.489
C 619.272 580.769 619.912 583.988 619.182 585.015
C 618.091 585.083 616.97 584.885 615.869 584.905
C 615.112 584.138 615.567 581.727 615.566 580.677
C 615.565 577.613 615.629 574.559 615.479 571.5
C 615.426 570.423 615.616 569.258 615.02 568.297
C 612.283 563.882 606.702 565.633 604.479 569.551
C 603.548 571.192 603.721 573.327 603.731 575.145
C 603.749 578.374 603.489 581.836 603.883 585.037
C 603.576 585.556 600.922 585.107 600.305 585.096
C 600.371 577.685 600.536 570.175 600.249 562.768 Z"
opacity="1" fill="rgb(46,43,44)" fill-rule="evenodd" />
<path d="
M 603.158 450.653
C 608.359 450.06 613.729 450.508 618.954 450.499
C 619.285 453.8 618.957 457.233 619.413 460.502
C 620.546 459.778 621.315 457.797 622.337 456.772
C 625.129 453.972 628.381 451.825 632.146 450.573
C 635.89 449.328 640.154 448.69 644.101 449.034
C 647.586 449.338 650.899 449.803 654.191 451.077
C 656.19 451.85 658.125 452.885 659.842 454.173
C 672.429 463.621 670.072 481.694 670.126 495.5
C 670.155 502.832 670.183 510.165 670.183 517.497
C 670.183 519.141 670.148 520.789 670.185 522.433
C 670.202 523.197 670.335 524.433 669.812 525.027
C 664.689 525.087 659.463 524.569 654.348 525.04
C 653.236 521.561 654.126 516.652 654.123 513.006
C 654.117 504.083 654.086 495.158 654.125 486.235
C 654.148 480.968 654.538 474.917 651.702 470.235
C 644.738 458.738 626.587 462.428 620.96 473.181
C 618.05 478.741 618.9 485.422 618.914 491.512
C 618.931 498.679 618.967 505.847 618.951 513.014
C 618.941 517.011 618.673 521.137 618.995 525.12
C 617.223 525.556 614.838 525.094 613.008 525.077
C 609.844 525.049 606.486 525.474 603.351 525.219
C 604.034 513.561 603.355 501.682 603.323 490.003
C 603.286 476.926 603.827 463.711 603.158 450.653 Z"
opacity="1" fill="rgb(50,45,51)" fill-rule="evenodd" />
<path d="
M 624.924 571.583
C 626.305 565.965 630.333 562.009 636.389 562.376
C 638.901 562.529 640.971 563.538 642.696 565.362
C 643.263 565.963 644.234 566.88 643.839 567.769
C 642.938 568.042 642.134 568.544 641.183 568.639
C 639.979 567.512 639.23 566.138 637.522 565.656
C 627.209 562.746 624.739 582.205 635.505 581.973
C 636.436 581.953 637.349 581.857 638.221 581.502
C 639.657 580.918 640.367 579.73 641.287 578.569
C 642.272 579.064 643.452 579.51 644.338 580.157
C 641.634 585.516 633.673 586.84 629.04 583.338
C 625.617 580.75 624.081 575.721 624.924 571.583 Z"
opacity="1" fill="rgb(47,42,43)" fill-rule="evenodd" />
<path d="
M 648.005 573.111
C 648.334 570.302 649.183 567.651 651.131 565.528
C 655.022 561.288 661.688 561.378 665.787 565.222
C 668.817 568.064 668.207 571.544 668.79 575.193
C 667.205 575.336 665.593 575.013 664.005 575.002
C 660.114 574.978 656.147 575.052 652.259 575.253
C 651.198 577.898 653.566 580.887 656.009 581.709
C 659.185 582.778 663.015 581.844 664.967 579.125
C 665.83 579.263 667.333 579.792 667.809 580.574
C 667.32 582.032 665.901 582.949 664.647 583.707
C 661.165 585.814 656.515 585.757 653.013 583.704
C 649.141 581.434 647.993 577.313 648.005 573.111 Z
M 652.011 571.112
C 651.869 571.702 651.933 571.373 651.842 572.103
C 652.213 572.597 654.767 572.089 655.494 572.074
C 658.536 572.01 662.284 571.572 665.261 572.162
C 664.936 570.174 664.398 568.11 662.746 566.799
C 658.599 563.506 652.99 566.276 652.011 571.112 Z"
opacity="1" fill="rgb(53,46,49)" fill-rule="evenodd" />
<path d="
M 686.464 555.605
C 686.464 555.372 686.464 555.138 686.464 554.905
C 689.376 554.389 692.558 554.752 695.509 554.77
C 699.014 554.79 702.656 554.496 706.143 554.828
C 706.161 555.958 706.152 557.123 706.218 558.246
C 700.982 558.122 695.564 557.899 690.349 558.348
C 690.411 560.788 690.298 563.245 690.268 565.686
C 690.261 566.319 690.048 567.874 690.432 568.341
C 693.814 568.032 697.33 568.337 700.729 568.31
C 701.764 568.302 703.914 567.859 704.807 568.384
C 704.752 569.38 704.625 570.654 704.793 571.633
C 699.998 571.695 695.135 571.336 690.349 571.709
C 690.273 575.951 690.989 580.831 690.22 584.994
C 688.999 585.068 687.674 585.018 686.449 584.997
C 686.587 575.24 685.896 565.353 686.464 555.605 Z"
opacity="1" fill="rgb(50,46,49)" fill-rule="evenodd" />
<path d="
M 691.844 426.556
C 692.195 425.206 692.826 423.924 693.686 422.828
C 700.263 414.452 713.266 421.926 710.54 431.841
C 707.858 441.594 693.194 440.433 691.634 430.591
C 691.423 429.258 691.504 427.862 691.844 426.556 Z"
opacity="1" fill="rgb(50,47,52)" fill-rule="evenodd" />
<path d="
M 693.352 450.792
C 698.443 450.701 703.648 450.531 708.733 450.812
C 709.156 456.646 708.769 462.649 708.772 468.501
C 708.778 480.334 708.77 492.168 708.789 504.001
C 708.797 508.834 708.792 513.667 708.795 518.501
C 708.797 520.475 708.265 523.258 708.801 525.139
C 705.536 525.149 702.268 525.011 699 525.045
C 697.261 525.063 695.188 525.386 693.486 525.049
C 693.461 508.381 693.392 491.681 693.356 474.998
C 693.338 466.943 693.64 458.839 693.352 450.792 Z"
opacity="1" fill="rgb(49,46,50)" fill-rule="evenodd" />
<path d="
M 710.959 582.615
C 711.447 577.811 710.994 572.825 711.077 567.996
C 711.106 566.334 710.637 564.304 711.217 562.728
C 712.223 562.757 713.185 562.777 714.19 562.863
C 714.773 564.063 714.403 565.7 714.576 566.997
C 714.724 567.07 716.491 564.458 716.823 564.161
C 718.64 562.533 720.53 562.601 722.813 562.47
C 722.734 563.618 722.589 565.1 722.839 566.225
C 721.512 566.194 720.225 565.77 718.917 566.281
C 713.751 568.298 714.67 574.4 714.667 578.79
C 714.665 580.242 714.698 581.691 714.743 583.142
C 714.758 583.644 714.513 584.62 714.732 585.056
C 713.467 585.232 712.16 585.159 710.89 585.104
C 710.915 584.273 710.893 583.445 710.959 582.615 Z"
opacity="1" fill="rgb(49,46,49)" fill-rule="evenodd" />
<path d="
M 725.474 571.094
C 725.84 569.495 726.464 567.826 727.434 566.491
C 730.869 561.764 738.628 561.209 742.934 565.047
C 745.925 567.714 747.362 572.476 746.512 576.365
C 745.841 579.438 743.973 582.572 741.147 584.072
C 735.167 587.248 727.198 584.127 725.566 577.399
C 725.069 575.347 725.003 573.156 725.474 571.094 Z
M 728.94 572.096
C 728.486 575.079 729.114 578.375 731.483 580.437
C 735.705 584.113 741.771 581.425 742.748 576.131
C 743.367 572.776 742.466 568.638 739.432 566.664
C 734.919 563.728 729.696 567.123 728.94 572.096 Z"
opacity="1" fill="rgb(48,44,46)" fill-rule="evenodd" />
<path d="
M 734.293 424.35
C 739.469 424.198 744.653 424.405 749.826 424.243
C 751.071 425.562 751.69 427.827 752.495 429.442
C 754.324 433.111 756.145 436.787 758.009 440.44
C 764.326 452.821 770.443 465.305 776.793 477.672
C 778.589 481.17 780.242 484.74 781.991 488.261
C 782.589 489.465 783.078 491.519 783.987 492.457
C 791.936 476.822 799.898 461.156 807.67 445.425
C 810.051 440.606 812.558 435.848 814.963 431.04
C 816.021 428.924 816.857 425.855 818.542 424.192
C 822.028 424.247 825.518 424.237 829.007 424.247
C 830.56 424.251 832.575 423.908 834.054 424.345
C 834.862 432.387 834.099 440.907 834.101 448.997
C 834.105 465.164 834.139 481.332 834.163 497.499
C 834.173 503.999 834.16 510.499 834.174 516.999
C 834.178 518.83 834.149 520.663 834.176 522.492
C 834.188 523.241 834.394 524.295 834.023 524.974
C 829.663 524.766 824.133 524.187 819.862 525.137
C 820.281 500.167 819.289 475.16 820.07 450.2
C 820.036 449.672 820.011 448.719 819.489 449.61
C 817.146 453.827 815.269 458.347 813.078 462.652
C 807.705 473.211 802.31 483.759 796.938 494.319
C 794.163 499.773 791.804 506.146 788.286 511.147
C 785.291 511.489 782.168 511.007 779.156 511.135
C 778.207 510.387 777.754 508.514 777.243 507.413
C 776.03 504.8 774.74 502.208 773.456 499.627
C 768.294 489.245 762.959 478.945 757.762 468.579
C 755.612 464.289 753.507 459.967 751.316 455.699
C 750.52 454.149 749.638 452.61 748.982 450.997
C 748.796 450.54 748.556 449.13 748.057 449.866
C 747.945 468.237 748.211 486.626 748.229 505.001
C 748.233 509.834 748.231 514.668 748.224 519.501
C 748.222 520.819 748.259 522.139 748.246 523.456
C 748.243 523.835 748.045 524.777 748.24 525.102
C 743.812 523.928 738.719 525.516 734.23 525.055
C 734.609 517.076 734.272 508.993 734.262 501.002
C 734.243 484.836 734.244 468.669 734.224 452.503
C 734.213 443.135 733.93 433.71 734.293 424.35 Z"
opacity="1" fill="rgb(115,113,117)" fill-rule="evenodd" />
<path d="
M 752.406 563.586
C 752.402 563.38 752.399 563.174 752.395 562.968
C 753.506 562.792 754.606 562.859 755.727 562.824
C 755.853 563.972 755.748 565.137 755.832 566.291
C 756.211 566.552 756.632 565.759 756.851 565.486
C 757.551 564.619 758.364 563.749 759.373 563.238
C 762.717 561.545 767.919 562.634 769.106 566.523
C 769.718 566.819 771.703 564.142 772.35 563.678
C 773.962 562.52 776.545 562.426 778.452 562.694
C 785.767 563.72 784.174 573.87 784.203 579.069
C 784.212 580.811 784.769 583.379 784.151 585.001
C 783.084 585.11 781.973 584.957 780.88 585.012
C 780.039 584.19 780.592 581.273 780.598 580.088
C 780.612 577.552 780.637 575.028 780.471 572.5
C 780.383 571.146 780.574 569.681 780.052 568.395
C 778.567 564.738 773.77 565.414 771.531 567.815
C 769.921 569.623 770.064 571.957 770.096 574.242
C 770.145 577.781 769.821 581.365 769.883 584.87
C 768.785 585.02 767.552 585.055 766.453 584.999
C 766.565 581.262 766.488 577.496 766.501 573.754
C 766.508 572.053 766.81 569.811 766.007 568.242
C 763.585 563.505 757.926 566.15 756.295 570.094
C 755.766 571.371 755.933 572.964 755.924 574.317
C 755.901 577.737 756.487 581.597 755.936 584.953
C 754.793 584.918 753.649 584.965 752.505 584.924
C 751.918 582.169 752.431 578.816 752.444 575.999
C 752.464 571.921 752.007 567.637 752.406 563.586 Z"
opacity="1" fill="rgb(49,45,47)" fill-rule="evenodd" />
<path d="
M 799.892 584.032
C 802.398 577.791 804.948 571.563 807.289 565.257
C 808.498 562.002 809.519 558.498 811.141 555.423
C 812.285 554.783 813.862 555.071 815.14 555.12
C 817.882 565.342 824.014 574.684 826.558 584.967
C 825.578 584.981 823.983 585.263 823.075 584.924
C 822.467 584.698 822.183 583.555 821.979 583.007
C 821.254 581.066 820.507 579.122 819.708 577.21
C 819.042 576.684 817.332 577.09 816.505 577.073
C 813.214 577.006 809.78 576.625 806.502 576.855
C 805.269 579.557 804.557 582.499 803.281 585.178
C 802.197 585.396 800.972 585.095 799.875 585.053
C 799.68 584.392 799.686 584.732 799.892 584.032 Z
M 807.912 573.062
C 807.834 573.304 807.756 573.546 807.678 573.788
C 811.27 573.645 814.882 573.94 818.479 573.792
C 818.591 572.577 817.501 570.809 817.108 569.634
C 815.949 566.162 815.032 561.636 813.014 558.59
C 812.037 563.315 809.956 568.688 807.912 573.062 Z"
opacity="1" fill="rgb(47,43,45)" fill-rule="evenodd" />
<path d="
M 828.935 572.594
C 829.994 566.758 834.222 561.901 840.624 562.524
C 843.369 562.791 844.628 563.574 846.734 565.265
C 847.23 565.663 848.333 566.27 848.409 566.906
C 847.908 567.951 846.662 568.625 845.562 568.841
C 843.97 567.754 843.307 566.131 841.241 565.647
C 834.329 564.025 830.909 573.101 833.413 578.358
C 834.997 581.681 839.369 583.433 842.651 581.388
C 843.831 580.651 844.671 579.726 845.47 578.597
C 846.563 578.811 847.96 579.548 848.917 580.126
C 847.658 581.995 845.899 583.723 843.771 584.561
C 835.791 587.705 827.78 580.938 828.935 572.594 Z"
opacity="1" fill="rgb(49,44,45)" fill-rule="evenodd" />
<path d="
M 850.743 563.267
C 852.153 562.966 853.515 562.918 854.924 562.703
C 855.229 560.653 854.699 558.322 855.298 556.358
C 856.44 556.313 857.573 556.254 858.717 556.222
C 858.963 558.471 858.746 560.765 858.857 563.023
C 859.781 562.922 863.309 562.26 863.82 563.045
C 863.918 563.912 864.001 564.944 863.764 565.79
C 862.166 566.043 860.538 565.808 858.929 565.944
C 858.282 567.018 858.631 569.23 858.633 570.496
C 858.637 574.295 857.562 579.058 860.537 581.855
C 861.75 581.956 863.061 581.242 864.229 581.661
C 864.363 582.531 864.628 583.494 864.399 584.358
C 863.233 584.724 862.095 585.208 860.857 585.24
C 853.341 585.432 855.227 576.263 855.216 571.273
C 855.213 569.58 855.102 567.868 855.172 566.181
C 854.089 565.679 852.249 565.923 851.048 565.855
C 850.431 565.325 850.631 564.041 850.743 563.267 Z"
opacity="1" fill="rgb(52,49,49)" fill-rule="evenodd" />
<path d="
M 853.963 482.596
C 856.113 470.848 861.341 459.546 872.399 453.635
C 885.879 446.43 905.205 447.802 915.939 459.369
C 921.264 465.106 924.113 472.583 925.264 480.234
C 925.857 484.182 926.247 488.937 925.365 492.852
C 912.912 492.91 900.453 492.89 887.998 492.896
C 881.378 492.9 874.671 492.579 868.067 492.995
C 867.681 494.237 868.474 496.076 868.82 497.307
C 870.004 501.515 872.093 505.602 875.251 508.662
C 885.372 518.466 903.811 516.517 912.19 505.526
C 912.985 505.254 913.995 506.498 914.638 506.936
C 916.248 508.032 917.851 509.143 919.44 510.269
C 920.083 510.724 921.116 511.13 921.526 511.805
C 918.183 517.791 912.282 521.927 905.959 524.256
C 893.045 529.011 877.643 527.508 866.874 518.482
C 856.63 509.895 852.285 495.61 853.963 482.596 Z
M 868.463 479.593
C 868.278 480.667 868.21 481.734 868.119 482.819
C 876.016 483.274 884.086 482.892 892.001 482.873
C 898.759 482.856 905.66 483.256 912.4 482.846
C 911.792 476.582 909.245 469.947 904.314 465.839
C 896.626 459.431 883.587 460.169 876.129 466.532
C 872.14 469.935 869.86 474.65 868.463 479.593 Z"
opacity="1" fill="rgb(113,112,116)" fill-rule="evenodd" />
<path d="
M 868.927 555.582
C 869.057 555.04 869.202 554.572 869.595 554.152
C 872.068 551.506 875.579 556.621 872.855 558.277
C 872.067 558.416 871.298 558.484 870.497 558.487
C 869.518 558.024 868.933 556.608 868.927 555.582 Z"
opacity="1" fill="rgb(37,35,36)" fill-rule="evenodd" />
<path d="
M 869.469 564.099
C 869.569 563.492 869.535 563.847 869.515 563.03
C 870.554 562.616 871.909 562.622 872.954 563.008
C 873.115 567.463 872.906 571.93 872.993 576.377
C 873.047 579.13 873.573 582.238 873.023 584.948
C 871.842 584.856 870.649 584.875 869.465 584.803
C 869.19 580.687 869.391 576.518 869.42 572.394
C 869.44 569.65 869.186 566.83 869.469 564.099 Z"
opacity="1" fill="rgb(44,41,43)" fill-rule="evenodd" />
<path d="
M 879 572.605
C 879.637 563.882 890.368 559.279 896.878 565.454
C 899.381 567.827 900.48 571.585 900.221 574.978
C 899.599 583.143 889.948 588.602 883.08 583.279
C 879.926 580.834 878.721 576.433 879 572.605 Z
M 882.889 571.574
C 882.293 574.564 882.692 578.344 885.038 580.521
C 889.171 584.354 895.29 581.098 896.303 576.142
C 897.045 572.512 896.043 568.608 892.866 566.453
C 888.691 563.62 883.762 567.195 882.889 571.574 Z"
opacity="1" fill="rgb(45,40,42)" fill-rule="evenodd" />
<path d="
M 905.887 563.461
C 905.969 563.301 906.05 563.142 906.132 562.982
C 907.298 562.79 908.437 562.844 909.614 562.83
C 909.88 563.95 909.712 565.728 909.419 566.827
C 910.119 566.918 911.921 564.404 912.502 563.955
C 914.112 562.711 916.139 562.595 918.095 562.646
C 926.383 562.859 924.872 572.941 924.934 578.544
C 924.958 580.636 925.165 582.848 924.893 584.908
C 923.708 584.98 922.536 584.917 921.351 584.927
C 920.349 581.412 921.177 576.598 921.174 572.944
C 921.173 571.624 921.385 570.015 920.895 568.763
C 919.062 564.075 913.416 565.659 911.045 568.855
C 908.892 572.098 909.708 576.959 909.761 580.702
C 909.777 581.82 910.22 583.98 909.628 584.979
C 908.602 584.913 906.832 585.306 905.967 584.844
C 906.01 577.748 905.514 570.554 905.887 563.461 Z"
opacity="1" fill="rgb(54,49,50)" fill-rule="evenodd" />

</svg>